<svg xmlns="http://www.w3.org/2000/svg" width="680" height="218" viewBox="0 0 680 218">
  <defs>
    <style>
      .panel-title { font: 700 17px 'DejaVu Sans', Arial, sans-serif; fill: #182026; }
      .body { font: 15px 'DejaVu Sans Mono', monospace; fill: #182026; }
      .label { font: 600 13px 'DejaVu Sans', Arial, sans-serif; fill: #182026; }
      .small { font: 12px 'DejaVu Sans', Arial, sans-serif; fill: #5b6770; }
      .panel { fill: #ffffff; stroke: #d8dee4; stroke-width: 1.5; rx: 16; ry: 16; }
      .disc-fill { fill: #fbd38d; opacity: 0.85; }
      .line-disc { stroke: #b7791f; stroke-width: 3; fill: none; }
      .tag-disc { fill: #fff7e6; stroke: #b7791f; stroke-width: 1.5; rx: 8; ry: 8; }
      .connector { stroke: #6b7280; stroke-width: 1.6; fill: none; }
    </style>
  </defs>

  <rect x="0" y="0" width="680" height="218" fill="#f7fafc" />
  <rect class="panel" x="24" y="14" width="632" height="182" />

  <rect class="disc-fill" x="176" y="82" width="54" height="22" rx="4" ry="4" />
  <rect class="disc-fill" x="347" y="82" width="96" height="22" rx="4" ry="4" />
  <text class="body" y="100" xml:space="preserve">
    <tspan x="44">... displaying </tspan>
    <tspan x="176">verbal</tspan>
    <tspan x="228"> and physical </tspan>
    <tspan x="350">aggression</tspan>
    <tspan x="446"> towards staff ...</tspan>
  </text>
  <path class="line-disc" d="M178 108 L228 108" />
  <path class="line-disc" d="M349 108 L441 108" />
  <path class="connector" d="M203 111 C203 126, 251 126, 251 150" />
  <path class="connector" d="M392 111 C392 126, 332 126, 332 150" />
  <rect class="tag-disc" x="126" y="150" width="195" height="24" />
  <text class="label" x="136" y="167">Symptom: verbal aggression</text>
  <text class="small" x="44" y="184">One mention, two spans.</text>
</svg>
